<mxfile host="app.diagrams.net" modified="2023-09-27T08:33:29.394Z" agent="Mozilla/5.0 (X11; Ubuntu; Linux x86_64; rv:109.0) Gecko/20100101 Firefox/118.0" etag="n8ha0lOGFbOG6shxYPr9" version="21.8.2" type="device">
  <diagram id="C5RBs43oDa-KdzZeNtuy" name="Page-1">
    <mxGraphModel dx="778" dy="2164" grid="1" gridSize="10" guides="1" tooltips="1" connect="1" arrows="1" fold="1" page="1" pageScale="1" pageWidth="827" pageHeight="1169" math="0" shadow="0">
      <root>
        <mxCell id="WIyWlLk6GJQsqaUBKTNV-0" />
        <mxCell id="WIyWlLk6GJQsqaUBKTNV-1" parent="WIyWlLk6GJQsqaUBKTNV-0" />
        <mxCell id="x4emRK4jl5oL0Ng_hK4F-28" value="" style="shape=callout;whiteSpace=wrap;html=1;perimeter=calloutPerimeter;" vertex="1" parent="WIyWlLk6GJQsqaUBKTNV-1">
          <mxGeometry x="60" y="-300" width="620" height="540" as="geometry" />
        </mxCell>
        <mxCell id="x4emRK4jl5oL0Ng_hK4F-17" value="Класс" style="rounded=1;whiteSpace=wrap;html=1;" vertex="1" parent="WIyWlLk6GJQsqaUBKTNV-1">
          <mxGeometry x="310" y="-210" width="120" height="60" as="geometry" />
        </mxCell>
        <mxCell id="x4emRK4jl5oL0Ng_hK4F-18" value="Поля" style="rounded=1;whiteSpace=wrap;html=1;" vertex="1" parent="WIyWlLk6GJQsqaUBKTNV-1">
          <mxGeometry x="130" y="-100" width="120" height="60" as="geometry" />
        </mxCell>
        <mxCell id="x4emRK4jl5oL0Ng_hK4F-19" value="Объекты" style="rounded=1;whiteSpace=wrap;html=1;" vertex="1" parent="WIyWlLk6GJQsqaUBKTNV-1">
          <mxGeometry x="490" y="-100" width="120" height="60" as="geometry" />
        </mxCell>
        <mxCell id="x4emRK4jl5oL0Ng_hK4F-20" value="Методы" style="rounded=1;whiteSpace=wrap;html=1;" vertex="1" parent="WIyWlLk6GJQsqaUBKTNV-1">
          <mxGeometry x="310" y="10" width="120" height="60" as="geometry" />
        </mxCell>
        <mxCell id="x4emRK4jl5oL0Ng_hK4F-21" value="" style="endArrow=classic;html=1;rounded=0;entryX=1;entryY=0;entryDx=0;entryDy=0;" edge="1" parent="WIyWlLk6GJQsqaUBKTNV-1" target="x4emRK4jl5oL0Ng_hK4F-20">
          <mxGeometry width="50" height="50" relative="1" as="geometry">
            <mxPoint x="490" y="-40" as="sourcePoint" />
            <mxPoint x="540" y="-90" as="targetPoint" />
          </mxGeometry>
        </mxCell>
        <mxCell id="x4emRK4jl5oL0Ng_hK4F-22" value="" style="endArrow=classic;html=1;rounded=0;entryX=0;entryY=0;entryDx=0;entryDy=0;" edge="1" parent="WIyWlLk6GJQsqaUBKTNV-1" target="x4emRK4jl5oL0Ng_hK4F-19">
          <mxGeometry width="50" height="50" relative="1" as="geometry">
            <mxPoint x="430" y="-150" as="sourcePoint" />
            <mxPoint x="370" y="-100" as="targetPoint" />
          </mxGeometry>
        </mxCell>
        <mxCell id="x4emRK4jl5oL0Ng_hK4F-23" value="Text" style="edgeLabel;html=1;align=center;verticalAlign=middle;resizable=0;points=[];" vertex="1" connectable="0" parent="x4emRK4jl5oL0Ng_hK4F-22">
          <mxGeometry x="-0.06" y="-1" relative="1" as="geometry">
            <mxPoint as="offset" />
          </mxGeometry>
        </mxCell>
        <mxCell id="x4emRK4jl5oL0Ng_hK4F-24" value="" style="endArrow=classic;html=1;rounded=0;entryX=0;entryY=0.5;entryDx=0;entryDy=0;" edge="1" parent="WIyWlLk6GJQsqaUBKTNV-1">
          <mxGeometry width="50" height="50" relative="1" as="geometry">
            <mxPoint x="250" y="-80" as="sourcePoint" />
            <mxPoint x="490" y="-80" as="targetPoint" />
          </mxGeometry>
        </mxCell>
        <mxCell id="x4emRK4jl5oL0Ng_hK4F-25" value="" style="endArrow=none;dashed=1;html=1;dashPattern=1 3;strokeWidth=2;rounded=0;exitX=0;exitY=0;exitDx=0;exitDy=0;entryX=1;entryY=1;entryDx=0;entryDy=0;" edge="1" parent="WIyWlLk6GJQsqaUBKTNV-1" source="x4emRK4jl5oL0Ng_hK4F-20" target="x4emRK4jl5oL0Ng_hK4F-18">
          <mxGeometry width="50" height="50" relative="1" as="geometry">
            <mxPoint x="150" y="10" as="sourcePoint" />
            <mxPoint x="200" y="-40" as="targetPoint" />
          </mxGeometry>
        </mxCell>
        <mxCell id="x4emRK4jl5oL0Ng_hK4F-26" value="" style="endArrow=none;dashed=1;html=1;dashPattern=1 3;strokeWidth=2;rounded=0;exitX=1;exitY=0;exitDx=0;exitDy=0;" edge="1" parent="WIyWlLk6GJQsqaUBKTNV-1" source="x4emRK4jl5oL0Ng_hK4F-18">
          <mxGeometry width="50" height="50" relative="1" as="geometry">
            <mxPoint x="260" y="-100" as="sourcePoint" />
            <mxPoint x="310" y="-150" as="targetPoint" />
          </mxGeometry>
        </mxCell>
        <mxCell id="x4emRK4jl5oL0Ng_hK4F-27" value="" style="endArrow=classic;html=1;rounded=0;entryX=1.017;entryY=0.65;entryDx=0;entryDy=0;entryPerimeter=0;" edge="1" parent="WIyWlLk6GJQsqaUBKTNV-1" target="x4emRK4jl5oL0Ng_hK4F-18">
          <mxGeometry width="50" height="50" relative="1" as="geometry">
            <mxPoint x="490" y="-60" as="sourcePoint" />
            <mxPoint x="540" y="-110" as="targetPoint" />
          </mxGeometry>
        </mxCell>
        <mxCell id="x4emRK4jl5oL0Ng_hK4F-40" value="Инкапсуляция" style="ellipse;whiteSpace=wrap;html=1;" vertex="1" parent="WIyWlLk6GJQsqaUBKTNV-1">
          <mxGeometry x="294" y="250" width="120" height="80" as="geometry" />
        </mxCell>
        <mxCell id="x4emRK4jl5oL0Ng_hK4F-41" value="Объекты" style="rounded=1;whiteSpace=wrap;html=1;" vertex="1" parent="WIyWlLk6GJQsqaUBKTNV-1">
          <mxGeometry x="500" y="-90" width="120" height="60" as="geometry" />
        </mxCell>
        <mxCell id="x4emRK4jl5oL0Ng_hK4F-42" value="Объекты" style="rounded=1;whiteSpace=wrap;html=1;" vertex="1" parent="WIyWlLk6GJQsqaUBKTNV-1">
          <mxGeometry x="510" y="-80" width="120" height="60" as="geometry" />
        </mxCell>
        <mxCell id="x4emRK4jl5oL0Ng_hK4F-43" value="Объекты" style="rounded=1;whiteSpace=wrap;html=1;" vertex="1" parent="WIyWlLk6GJQsqaUBKTNV-1">
          <mxGeometry x="520" y="-70" width="120" height="60" as="geometry" />
        </mxCell>
        <mxCell id="x4emRK4jl5oL0Ng_hK4F-45" value="Методы" style="rounded=1;whiteSpace=wrap;html=1;" vertex="1" parent="WIyWlLk6GJQsqaUBKTNV-1">
          <mxGeometry x="320" y="20" width="120" height="60" as="geometry" />
        </mxCell>
        <mxCell id="x4emRK4jl5oL0Ng_hK4F-46" value="Методы" style="rounded=1;whiteSpace=wrap;html=1;" vertex="1" parent="WIyWlLk6GJQsqaUBKTNV-1">
          <mxGeometry x="330" y="30" width="120" height="60" as="geometry" />
        </mxCell>
        <mxCell id="x4emRK4jl5oL0Ng_hK4F-47" value="Методы" style="rounded=1;whiteSpace=wrap;html=1;" vertex="1" parent="WIyWlLk6GJQsqaUBKTNV-1">
          <mxGeometry x="340" y="40" width="120" height="60" as="geometry" />
        </mxCell>
      </root>
    </mxGraphModel>
  </diagram>
</mxfile>
